<?xml version="1.0" encoding="UTF-8"?>
<svg xmlns="http://www.w3.org/2000/svg" xmlns:xlink="http://www.w3.org/1999/xlink" width="16pt" height="16pt" viewBox="0 0 20 20" version="1.1">
<g id="surface1">
<path style=" stroke:none;fill-rule:nonzero;fill:rgb(99.607843%,85.882353%,25.490196%);fill-opacity:1;" d="M 10.039062 0 C 4.542969 0 0 4.464844 0 9.960938 C 0 15.457031 4.542969 20 10.039062 20 C 15.535156 20 20 15.457031 20 9.960938 C 20 4.464844 15.535156 0 10.039062 0 Z M 10.039062 0 "/>
<path style=" stroke:none;fill-rule:nonzero;fill:rgb(100%,80%,20%);fill-opacity:1;" d="M 20 9.960938 C 20 15.457031 15.535156 20 10.039062 20 L 10.039062 0 C 15.535156 0 20 4.464844 20 9.960938 Z M 20 9.960938 "/>
<path style=" stroke:none;fill-rule:nonzero;fill:rgb(99.607843%,65.882353%,19.607843%);fill-opacity:1;" d="M 10.039062 2.34375 C 5.84375 2.34375 2.34375 5.765625 2.34375 9.960938 C 2.34375 14.15625 5.84375 17.65625 10.039062 17.65625 C 14.234375 17.65625 17.65625 14.15625 17.65625 9.960938 C 17.65625 5.765625 14.234375 2.34375 10.039062 2.34375 Z M 10.039062 2.34375 "/>
<path style=" stroke:none;fill-rule:nonzero;fill:rgb(99.607843%,60%,13.72549%);fill-opacity:1;" d="M 17.65625 9.960938 C 17.65625 14.15625 14.234375 17.65625 10.039062 17.65625 L 10.039062 2.34375 C 14.234375 2.34375 17.65625 5.765625 17.65625 9.960938 Z M 17.65625 9.960938 "/>
<path style=" stroke:none;fill-rule:nonzero;fill:rgb(99.607843%,85.882353%,25.490196%);fill-opacity:1;" d="M 11.210938 9.375 L 10.625 9.375 L 10.625 7.03125 L 11.210938 7.03125 C 11.539062 7.03125 11.796875 7.289062 11.796875 7.617188 C 11.796875 8.390625 12.96875 8.390625 12.96875 7.617188 C 12.96875 6.644531 12.183594 5.859375 11.210938 5.859375 L 10.625 5.859375 L 10.625 5.273438 C 10.625 4.886719 10.332031 4.6875 10.039062 4.6875 C 9.746094 4.6875 9.453125 4.886719 9.453125 5.273438 L 9.453125 5.859375 L 8.789062 5.859375 C 7.816406 5.859375 7.03125 6.644531 7.03125 7.617188 L 7.03125 8.789062 C 7.03125 9.761719 7.816406 10.546875 8.789062 10.546875 L 9.453125 10.546875 L 9.453125 12.96875 L 8.789062 12.96875 C 8.460938 12.96875 8.203125 12.710938 8.203125 12.382812 C 8.203125 11.609375 7.03125 11.609375 7.03125 12.382812 C 7.03125 13.355469 7.816406 14.140625 8.789062 14.140625 L 9.453125 14.140625 L 9.453125 14.726562 C 9.453125 15.113281 9.746094 15.3125 10.039062 15.3125 C 10.332031 15.3125 10.625 15.113281 10.625 14.726562 L 10.625 14.140625 L 11.210938 14.140625 C 12.183594 14.140625 12.96875 13.355469 12.96875 12.382812 L 12.96875 11.132812 C 12.96875 10.160156 12.183594 9.375 11.210938 9.375 Z M 9.453125 9.375 L 8.789062 9.375 C 8.460938 9.375 8.203125 9.117188 8.203125 8.789062 L 8.203125 7.617188 C 8.203125 7.289062 8.460938 7.03125 8.789062 7.03125 L 9.453125 7.03125 Z M 11.796875 12.382812 C 11.796875 12.710938 11.539062 12.96875 11.210938 12.96875 L 10.625 12.96875 L 10.625 10.546875 L 11.210938 10.546875 C 11.539062 10.546875 11.796875 10.804688 11.796875 11.132812 Z M 11.796875 12.382812 "/>
<path style=" stroke:none;fill-rule:nonzero;fill:rgb(100%,80%,20%);fill-opacity:1;" d="M 11.210938 9.375 L 10.625 9.375 L 10.625 7.03125 L 11.210938 7.03125 C 11.539062 7.03125 11.796875 7.289062 11.796875 7.617188 C 11.796875 8.390625 12.96875 8.390625 12.96875 7.617188 C 12.96875 6.644531 12.183594 5.859375 11.210938 5.859375 L 10.625 5.859375 L 10.625 5.273438 C 10.625 4.886719 10.332031 4.6875 10.039062 4.6875 L 10.039062 15.3125 C 10.332031 15.3125 10.625 15.113281 10.625 14.726562 L 10.625 14.140625 L 11.210938 14.140625 C 12.183594 14.140625 12.96875 13.355469 12.96875 12.382812 L 12.96875 11.132812 C 12.96875 10.160156 12.183594 9.375 11.210938 9.375 Z M 11.796875 12.382812 C 11.796875 12.710938 11.539062 12.96875 11.210938 12.96875 L 10.625 12.96875 L 10.625 10.546875 L 11.210938 10.546875 C 11.539062 10.546875 11.796875 10.804688 11.796875 11.132812 Z M 11.796875 12.382812 "/>
</g>
</svg>
